<svg width="0" height="0" class="hidden">
  <symbol xmlns="http://www.w3.org/2000/svg" viewBox="0 0 58 58" id="1">
    <path d="M50.688 48.222C55.232 43.101 58 36.369 58 29c0-7.667-2.996-14.643-7.872-19.834v-.001c-.004-.006-.01-.008-.013-.013C45.036 3.753 37.92.297 30.005.026l-.001-.001-.565-.015C29.293.005 29.147 0 29 0s-.293.005-.439.01l-.563.015-.001.001c-7.915.271-15.031 3.727-20.11 9.126-.004.005-.01.007-.013.013l-.001.002C2.996 14.357 0 21.333 0 29c0 7.369 2.768 14.101 7.312 19.222.006.009.006.019.013.028.018.025.044.037.063.06 5.106 5.708 12.432 9.385 20.608 9.665l.001.001.563.015c.147.004.293.009.44.009s.293-.005.439-.01l.563-.015.001-.001c8.185-.281 15.519-3.965 20.625-9.685.013-.017.034-.022.046-.04.008-.008.008-.018.014-.027zM2.025 30h12.003a36.956 36.956 0 0 0 2.415 12.217 36.873 36.873 0 0 0-8.111 4.131A26.875 26.875 0 0 1 2.025 30zm6.853-18.977a36.783 36.783 0 0 0 7.9 3.882A36.927 36.927 0 0 0 14.028 28H2.025a26.882 26.882 0 0 1 6.853-16.977zM55.975 28H43.972a36.927 36.927 0 0 0-2.75-13.095 36.783 36.783 0 0 0 7.9-3.882A26.882 26.882 0 0 1 55.975 28zM28 14.963a34.958 34.958 0 0 1-8.471-1.283A34.988 34.988 0 0 1 28 2.644v12.319zm0 2V28H16.028a34.926 34.926 0 0 1 2.666-12.475A36.948 36.948 0 0 0 28 16.963zm2 0c3.179-.085 6.3-.566 9.307-1.438A34.926 34.926 0 0 1 41.973 28H30V16.963zm0-2V2.644a34.988 34.988 0 0 1 8.471 11.036A34.958 34.958 0 0 1 30 14.963zm10.409-1.891a36.93 36.93 0 0 0-7.888-10.835 26.922 26.922 0 0 1 15.183 7.318 34.782 34.782 0 0 1-7.295 3.517zm-22.818 0a34.75 34.75 0 0 1-7.294-3.517A26.92 26.92 0 0 1 25.48 2.237a36.915 36.915 0 0 0-7.889 10.835zM16.028 30H28v10.038a36.883 36.883 0 0 0-9.661 1.541A34.924 34.924 0 0 1 16.028 30zM28 42.038v13.318a34.97 34.97 0 0 1-8.884-11.917A34.867 34.867 0 0 1 28 42.038zm2 13.318V42.038c3.039.085 6.017.556 8.884 1.4A34.964 34.964 0 0 1 30 55.356zm0-15.318V30h11.972a34.91 34.91 0 0 1-2.312 11.58A36.828 36.828 0 0 0 30 40.038zM43.972 30h12.003a26.87 26.87 0 0 1-6.307 16.348 36.873 36.873 0 0 0-8.111-4.131A36.93 36.93 0 0 0 43.972 30zM9.691 47.846a34.85 34.85 0 0 1 7.517-3.781 36.9 36.9 0 0 0 8.271 11.698c-6.151-.805-11.656-3.685-15.788-7.917zm22.83 7.917a36.878 36.878 0 0 0 8.271-11.698 34.874 34.874 0 0 1 7.517 3.781c-4.132 4.232-9.637 7.112-15.788 7.917z"></path>
  </symbol>
  <symbol xmlns="http://www.w3.org/2000/svg" viewBox="0 -3 512.001 512" id="2">
    <path d="M460.34 337.68l35.027-35.032c22.176-22.171 22.18-58.253.004-80.437a56.828 56.828 0 0 0-23.707-14.227c7.14-9.699 11.004-21.375 11.004-33.644 0-15.192-5.918-29.477-16.664-40.219-10.738-10.742-25.024-16.66-40.219-16.66-.637 0-1.273.012-1.91.031.496-15.183-5.035-30.535-16.602-42.105-11.566-11.563-26.937-17.102-42.097-16.598.02-.633.031-1.273.031-1.91 0-15.195-5.918-29.477-16.66-40.219-22.172-22.172-58.254-22.176-80.438 0L256 28.77l-12.105-12.106C233.152 5.918 218.867 0 203.672 0c-15.192 0-29.473 5.918-40.215 16.656-11.57 11.57-17.09 26.926-16.586 42.121a52.581 52.581 0 0 0-1.922-.047c-15.191 0-29.476 5.915-40.226 16.657-11.567 11.574-17.086 26.93-16.582 42.12-.645-.023-1.286-.046-1.93-.046-15.191 0-29.477 5.918-40.211 16.656-10.746 10.742-16.664 25.028-16.664 40.223 0 12.265 3.86 23.941 11.004 33.637-8.86 2.671-16.98 7.507-23.711 14.234-22.121 22.129-22.172 58.098-.149 80.281.055.059.11.113.165.172l35.078 35.07c.047.051.097.102.148.153a57.596 57.596 0 0 0 6.715 5.75L48.21 354.012c-10.09 10.09-15.23 23.836-14.469 38.707.727 14.277 6.871 27.879 17.293 38.3l59.332 59.336c11.008 11.004 25.461 16.508 39.918 16.508s28.914-5.504 39.918-16.508l27.578-27.582a182.277 182.277 0 0 0 38.227 4.07c12.816 0 25.637-1.363 38.215-4.062l27.57 27.574c11.008 11.004 25.46 16.508 39.918 16.508 14.453-.004 28.914-5.504 39.918-16.508l59.336-59.335c22.008-22.008 24.508-55.32 5.57-74.262l-12.637-12.637 6.235-6.238c.07-.067.137-.133.207-.203zM185.164 38.367c4.945-4.945 11.52-7.668 18.512-7.668 6.992 0 13.566 2.723 18.512 7.668l46.98 46.98c10.207 10.212 10.207 26.821 0 37.028-4.945 4.945-11.52 7.668-18.508 7.668h-.004c-6.992-.004-13.562-2.723-18.508-7.668l-.02-.02-46.952-46.953c-.04-.039-.074-.078-.117-.113-10.102-10.223-10.067-26.754.105-36.922zm-58.8 95.684c-10.137-10.215-10.114-26.774.066-36.953 4.949-4.946 11.527-7.668 18.52-7.668 6.984 0 13.55 2.718 18.495 7.66.004 0 .008.004.008.008a.6.6 0 0 1 .05.047l46.927 46.925c.027.032.062.063.093.094l11.66 11.66c4.946 4.946 7.672 11.52 7.672 18.516 0 6.992-2.722 13.566-7.667 18.508-4.946 4.945-11.52 7.668-18.512 7.668-6.992 0-13.567-2.723-18.508-7.668a7.97 7.97 0 0 0-.188-.18l-11.511-11.516a.458.458 0 0 1-.047-.05l-46.988-46.98-.004-.005-.067-.066zM67.71 155.824c4.941-4.941 11.512-7.664 18.504-7.664 6.992 0 13.566 2.723 18.512 7.668l47.035 47.035c10.156 10.211 10.136 26.782-.047 36.973-4.945 4.941-11.524 7.664-18.516 7.664-6.992 0-13.566-2.723-18.508-7.668-.062-.059-.12-.121-.183-.18L67.855 193l-.148-.152c-4.945-4.946-7.668-11.516-7.668-18.508-.004-6.992 2.723-13.567 7.672-18.516zM38.496 281.102a6.043 6.043 0 0 0-.176-.18c-10.187-10.207-10.18-26.8.02-37 4.945-4.945 11.52-7.668 18.512-7.668 6.992 0 13.57 2.723 18.515 7.672l35.235 35.23c10.207 10.207 10.207 26.817.003 37.024-4.945 4.945-11.52 7.668-18.507 7.668h-.004a26.72 26.72 0 0 1-3.805-.274c-.094-.02-.187-.031-.281-.047a25.983 25.983 0 0 1-14.317-7.234c-.039-.043-.082-.082-.12-.125zM216.95 431.035c-.133-.035-.262-.05-.39-.082a15.536 15.536 0 0 0-.922-.2c-.227-.038-.453-.065-.684-.097a16.379 16.379 0 0 0-.766-.082 11.2 11.2 0 0 0-.808-.039c-.219-.008-.434-.012-.652-.008-.29.004-.575.02-.86.043-.207.016-.414.032-.62.055-.282.031-.56.074-.837.121a12.78 12.78 0 0 0-.652.125c-.254.055-.504.113-.754.184-.238.062-.477.132-.715.207-.223.074-.437.152-.656.23-.254.098-.508.195-.754.305a16.317 16.317 0 0 0-1.332.656c-.2.11-.395.227-.59.348-.219.137-.441.273-.656.422-.219.152-.434.312-.645.476-.176.133-.347.266-.52.406-.25.211-.488.43-.722.657-.09.086-.187.16-.277.25L168.5 468.648c-10.043 10.043-26.379 10.043-36.422 0l-59.332-59.332c-5.039-5.039-8.004-11.488-8.344-18.164-.308-6.082 1.649-11.562 5.52-15.43l21.195-21.199c.324.004.649.024.977.024h.004c15.187 0 29.468-5.918 40.215-16.66 16.44-16.446 20.68-40.532 12.734-60.93 10.672-2.25 20.48-7.523 28.379-15.414a56.603 56.603 0 0 0 16.047-32.117 57.136 57.136 0 0 0 14.203 1.789h.004c15.187 0 29.468-5.914 40.215-16.656 10.742-10.743 16.66-25.028 16.66-40.22 0-4.847-.61-9.6-1.778-14.179 12.11-1.719 23.297-7.273 32.098-16.082 22.176-22.172 22.176-58.254.004-80.433l-13.172-13.172 12.11-12.106c10.21-10.207 26.82-10.207 37.023-.004 4.945 4.946 7.668 11.52 7.668 18.512 0 6.992-2.723 13.566-7.668 18.512a15.306 15.306 0 0 0-4.496 10.855c0 3.926 1.496 7.856 4.496 10.852 5.996 5.996 15.71 5.996 21.707 0 10.203-10.203 26.812-10.207 37.023 0 10.207 10.21 10.203 26.82-.004 37.027a15.304 15.304 0 0 0-4.496 10.852 15.28 15.28 0 0 0 4.496 10.851c5.997 5.996 15.711 5.996 21.707.004 4.946-4.945 11.524-7.668 18.516-7.672 6.992 0 13.566 2.723 18.508 7.668 4.95 4.95 7.672 11.524 7.672 18.516 0 6.898-2.653 13.39-7.473 18.308-.07.07-.14.137-.207.207l-22.012 22.016c-5.48 5.48-6.015 14.188-1.246 20.297l.79 1.012c4.757 6.097 13.312 7.699 19.952 3.742 10.293-6.133 23.407-4.488 31.891 3.992 10.207 10.211 10.207 26.82 0 37.027l-35.23 35.227-.204.21L362.61 392c-37.942 37.941-93.755 52.898-145.66 39.035zm227.883-52.57c6.73 6.734 4.129 21.152-5.57 30.851l-59.336 59.332c-10.043 10.043-26.38 10.043-36.422 0l-16.328-16.328a181.708 181.708 0 0 0 57.14-38.613l47.875-47.879zm0 0"></path>
  </symbol>
  <symbol xmlns="http://www.w3.org/2000/svg" viewBox="-74 1 511 511.999" id="3">
    <path d="M362.79 291.129c.003-.149.007-.293.007-.442 0-30.417-24.75-55.167-55.172-55.167h-15.059L358.59 76.28c11.637-28.097-1.754-60.433-29.856-72.082-28.105-11.64-60.441 1.754-72.082 29.86l-41.261 99.609-41.258-99.613C162.488 5.953 130.153-7.441 102.05 4.199 73.949 15.844 60.555 48.176 72.195 76.277l35.844 86.54a55.533 55.533 0 0 0-12.207 9.773c-10.07-10.703-24.344-17.41-40.164-17.414C25.246 155.176.5 179.926.5 210.348v120.504C.5 430.738 81.762 512 181.648 512c99.883 0 181.145-81.262 181.145-181.148zM113.534 31.918c12.817-5.313 27.567.8 32.88 13.621l55.116 133.066a15.006 15.006 0 0 0 13.86 9.262 15.006 15.006 0 0 0 13.859-9.262L284.367 45.54c5.313-12.82 20.063-18.934 32.883-13.625 12.82 5.316 18.93 20.066 13.621 32.883L260.086 235.52h-68.918l.004-25.172c-.004-29.961-24.02-54.403-53.809-55.137L99.914 64.8c-5.312-12.82.8-27.57 13.621-32.883zM136 235.52a54.78 54.78 0 0 0-25.164 6.101v-31.273c0-13.88 11.289-25.168 25.164-25.168 13.879 0 25.168 11.293 25.172 25.168l-.004 25.172zM30.5 210.348c0-13.88 11.29-25.172 25.164-25.172 13.879.004 25.168 11.297 25.172 25.172v80.336c-.004 13.875-11.293 25.164-25.168 25.164S30.5 304.558 30.5 290.684zM181.648 482c-80.304 0-146.175-62.957-150.867-142.105a54.834 54.834 0 0 0 24.887 5.957c15.82 0 30.098-6.707 40.168-17.414 10.07 10.707 24.344 17.414 40.168 17.414h131.453c8.285 0 15-6.715 15-15 0-8.282-6.715-15-15-15H136.004c-13.875 0-25.168-11.293-25.168-25.168.004-13.875 11.293-25.164 25.168-25.164h134.023l.075.003c.035 0 .066-.003.101-.003h37.422c13.824 0 25.078 11.195 25.172 24.996-.004.136-.004.277-.004.418v39.918c0 83.343-67.805 151.148-151.145 151.148zm0 0"></path>
  </symbol>
  <symbol xmlns="http://www.w3.org/2000/svg" viewBox="0 0 512.001 512.001" id="4">
    <path d="M341.954 328.358c-12.131 0-22-8.542-22-19.041 0-10.5 9.869-19.042 22-19.042s22 8.542 22 19.042c0 5.522 4.478 10 10 10s10-4.478 10-10c0-18.325-13.654-33.733-32-37.915v-5.201c0-5.522-4.478-10-10-10s-10 4.478-10 10v5.201c-18.346 4.182-32 19.59-32 37.915 0 21.527 18.841 39.041 42 39.041 12.131 0 22 8.542 22 19.042s-9.869 19.042-22 19.042-22-8.542-22-19.042c0-5.522-4.478-10-10-10s-10 4.478-10 10c0 18.325 13.654 33.733 32 37.915v4.32c0 5.522 4.478 10 10 10s10-4.478 10-10v-4.32c18.346-4.182 32-19.59 32-37.915 0-21.528-18.841-39.042-42-39.042zm109.528-59.482a130.294 130.294 0 0 0-53.222-47.101c-4.979-2.394-10.954-.298-13.346 4.68-2.393 4.978-.298 10.952 4.68 13.345C427.505 258.024 452 296.963 452 339.001c0 17.988-4.434 35.827-12.821 51.591-2.594 4.875-.745 10.931 4.131 13.525a10 10 0 0 0 13.525-4.131C466.756 381.342 472 360.253 472 339.001c0-24.96-7.095-49.209-20.518-70.125zm-93.809-59.874l-.673-.001c-5.522 0-10 4.477-10 10s4.478 10 10 10l.579.001h.048c5.501 0 9.973-4.446 9.999-9.953.025-5.523-4.431-10.021-9.953-10.047zm-63.266 229.2c-37.91-18.225-62.405-57.164-62.405-99.201 0-17.988 4.434-35.827 12.821-51.591 2.594-4.875.745-10.931-4.131-13.525-4.874-2.594-10.932-.745-13.525 4.131-9.921 18.645-15.165 39.733-15.165 60.985 0 24.96 7.095 49.208 20.518 70.125a130.304 130.304 0 0 0 53.222 47.102 10.002 10.002 0 0 0 8.665-18.026zm32.595 10.799l-.579-.002c-5.548-.01-10.02 4.429-10.045 9.953-.026 5.523 4.432 10.021 9.954 10.047l.67.002c5.522 0 10-4.478 10-10s-4.478-10-10-10z"></path>
    <path d="M387.409 175.168a45.9 45.9 0 0 0-4.443-8.168H409c25.364 0 46-20.636 46-46s-20.636-46-46-46h-80.08A45.733 45.733 0 0 0 337 49c0-25.364-20.636-46-46-46H46C20.636 3 0 23.636 0 49s20.636 46 46 46h80.08c-5.091 7.402-8.08 16.357-8.08 26s2.988 18.598 8.08 26H100c-25.364 0-46 20.636-46 46 0 14.567 6.814 27.566 17.415 36C60.814 237.434 54 250.433 54 265s6.814 27.566 17.415 36C60.814 309.434 54 322.433 54 337s6.814 27.566 17.415 36C60.814 381.434 54 394.433 54 409c0 25.364 20.636 46 46 46h117.85c31.046 33.207 75.212 54.001 124.151 54.001 93.738 0 170-76.262 170-170 0-78.017-52.83-143.918-124.592-163.833zM409 95c14.337 0 26 11.664 26 26s-11.663 26-26 26H164c-14.337 0-26-11.664-26-26s11.663-26 26-26h245zM46 75c-14.337 0-26-11.664-26-26s11.663-26 26-26h245c14.337 0 26 11.664 26 26s-11.663 26-26 26H46zm54 92h245c4.028 0 7.885.936 11.345 2.612-4.73-.397-9.512-.611-14.344-.611-46.945 0-89.505 19.129-120.299 49.999H100c-14.336 0-26-11.664-26-26s11.664-26 26-26zm0 72h104.615c-11.352 15.553-20.129 33.095-25.703 52H100c-14.337 0-26-11.663-26-26 0-14.336 11.663-26 26-26zm0 72h74.32a170.4 170.4 0 0 0-2.319 28.001c0 8.146.589 16.156 1.702 23.999H100c-14.337 0-26-11.663-26-26s11.663-26 26-26zm0 124c-14.337 0-26-11.663-26-26s11.663-26 26-26h77.786a169.33 169.33 0 0 0 23.993 52H100zm242.001 54.001c-82.71 0-150-67.29-150-150s67.29-150 150-150 150 67.29 150 150-67.29 150-150 150z"></path>
  </symbol>
  <symbol viewBox="0 0 512 512" xmlns="http://www.w3.org/2000/svg" id="5">
    <path d="M256 0C148.062 0 60.25 87.813 60.25 195.75c0 37.137 10.45 73.277 30.215 104.523a196.33 196.33 0 0 0 70.203 66.454v49.941C160.668 469.234 203.434 512 256 512h.004c25.46 0 49.398-9.918 67.402-27.922 18.008-18.008 27.926-41.945 27.926-67.41v-49.945a196.35 196.35 0 0 0 70.203-66.45c19.766-31.246 30.211-67.386 30.211-104.523C451.75 87.812 363.938 0 256 0zm-65.332 412.355v-39.644h130.664v39.644zm65.328-179.382c-8.281 0-15 6.715-15 15v94.742h-50.328v-111.88h130.668l-.004 111.88h-50.336v-94.742c0-8.285-6.715-15-15-15zm-25.922-50.332h51.848l18.195 18.195H211.88zM256 482c-26.91 0-50.063-16.355-60.063-39.645h120.157a65.266 65.266 0 0 1-13.899 20.512C289.855 475.203 273.45 482 256 482zm95.332-150.602V215.836c0-3.98-1.578-7.793-4.39-10.606l-80.337-80.332c-5.859-5.855-15.355-5.855-21.214 0l-80.328 80.332a14.986 14.986 0 0 0-4.395 10.606v115.562C116.711 300.637 90.25 250.625 90.25 195.75 90.25 104.355 164.605 30 256 30s165.75 74.355 165.75 165.75c0 54.875-26.46 104.887-70.418 135.648zM15 180.75a15.14 15.14 0 0 0-10.61 4.39C1.603 187.939 0 191.8 0 195.75s1.602 7.809 4.39 10.61c2.801 2.788 6.66 4.39 10.61 4.39s7.82-1.602 10.61-4.39c2.788-2.801 4.39-6.66 4.39-10.61s-1.602-7.813-4.39-10.61A15.14 15.14 0 0 0 15 180.75zm492.602 4.39c-2.793-2.788-6.653-4.39-10.602-4.39s-7.82 1.602-10.61 4.39c-2.788 2.801-4.39 6.66-4.39 10.61s1.602 7.809 4.39 10.61c2.79 2.788 6.66 4.39 10.61 4.39s7.809-1.602 10.602-4.39c2.796-2.801 4.398-6.66 4.398-10.61s-1.602-7.813-4.398-10.61zM85.59 40.34a15.11 15.11 0 0 0 10.61-4.4 15.103 15.103 0 0 0 4.39-10.601c0-3.95-1.602-7.82-4.39-10.61a15.137 15.137 0 0 0-10.61-4.39c-3.95 0-7.82 1.601-10.61 4.39a15.114 15.114 0 0 0-4.39 10.61 15.1 15.1 0 0 0 4.39 10.601 15.11 15.11 0 0 0 10.61 4.399zm340.82 310.82c-3.941 0-7.808 1.61-10.601 4.399a15.084 15.084 0 0 0-4.399 10.601c0 3.95 1.602 7.82 4.399 10.61a15.117 15.117 0 0 0 10.601 4.39c3.95 0 7.82-1.601 10.61-4.39a15.116 15.116 0 0 0 4.39-10.61 15.11 15.11 0 0 0-4.39-10.601 15.122 15.122 0 0 0-10.61-4.399zm0-310.82c3.942 0 7.809-1.602 10.61-4.399a15.103 15.103 0 0 0 4.39-10.601c0-3.95-1.601-7.82-4.39-10.61a15.135 15.135 0 0 0-10.61-4.39c-3.95 0-7.82 1.601-10.61 4.39a15.114 15.114 0 0 0-4.39 10.61c0 3.95 1.602 7.808 4.39 10.601a15.11 15.11 0 0 0 10.61 4.399zM85.59 351.16c-3.95 0-7.82 1.61-10.61 4.399a15.11 15.11 0 0 0-4.39 10.601c0 3.95 1.601 7.82 4.39 10.61a15.116 15.116 0 0 0 10.61 4.39 15.1 15.1 0 0 0 10.601-4.39 15.089 15.089 0 0 0 4.399-10.61c0-3.941-1.602-7.812-4.399-10.601-2.793-2.79-6.652-4.399-10.601-4.399zm0 0"></path>
  </symbol>
  <symbol viewBox="0 0 512 512" xmlns="http://www.w3.org/2000/svg" id="6">
    <path d="M507.605 165.063L346.941 4.394A14.995 14.995 0 0 0 336.332 0H135.5c-30.418 0-55.168 24.746-55.168 55.168v193.863H55.164C24.746 249.031 0 273.781 0 304.2v64.27c0 30.418 24.746 55.164 55.164 55.164h25.168v33.199c0 30.422 24.75 55.168 55.168 55.168h321.332C487.254 512 512 487.254 512 456.832V175.668a14.99 14.99 0 0 0-4.395-10.605zM351.332 51.215l109.453 109.453H376.5c-13.879 0-25.168-11.29-25.168-25.168zM30 368.469v-64.27c0-13.875 11.29-25.168 25.164-25.168h281.168c13.879 0 25.168 11.293 25.168 25.168v64.27c0 13.875-11.29 25.164-25.168 25.164H55.164C41.29 393.633 30 382.343 30 368.469zM456.832 482H135.5c-13.879 0-25.168-11.29-25.168-25.168v-33.2h226c30.422 0 55.168-24.745 55.168-55.163v-64.27c0-30.418-24.746-55.168-55.168-55.168h-226V55.168C110.332 41.289 121.622 30 135.5 30h185.832v105.5c0 30.418 24.75 55.168 55.168 55.168H482v266.164C482 470.711 470.71 482 456.832 482zm0 0"></path>
  </symbol>
  <symbol xmlns="http://www.w3.org/2000/svg" viewBox="0 0 512 512" id="7">
    <path d="M507.605 486.395l-60.293-60.297C489.125 379.188 512 319.355 512 256c0-49.285-13.867-96.645-40.207-137.773l35.812-35.813a15.005 15.005 0 0 0 3.993-14.055 14.99 14.99 0 0 0-9.856-10.78l-35.484-11.833-11.828-35.488A15.017 15.017 0 0 0 443.645.402a15.015 15.015 0 0 0-14.055 3.993L393.777 40.21C352.645 13.87 305.281 0 256 0 187.621 0 123.332 26.629 74.98 74.98 26.63 123.332 0 187.621 0 256c0 63.355 22.875 123.188 64.691 170.098L4.395 486.395c-5.86 5.855-5.86 15.355 0 21.21A14.948 14.948 0 0 0 15 512c3.84 0 7.68-1.465 10.605-4.395l60.297-60.296C132.812 489.129 192.645 512 256 512c63.355 0 123.188-22.875 170.098-64.691l60.297 60.296A14.948 14.948 0 0 0 497 512c3.84 0 7.68-1.465 10.605-4.395 5.86-5.855 5.86-15.351 0-21.21zM433.645 42.77l6.523 19.574a14.997 14.997 0 0 0 9.484 9.488l19.578 6.527-33.085 33.086-26.692-8.898-8.898-26.692zM321.335 256c0 36.023-29.312 65.332-65.335 65.332-36.023 0-65.332-29.309-65.332-65.332 0-36.023 29.309-65.332 65.332-65.332a64.913 64.913 0 0 1 34.336 9.781l-44.941 44.946c-5.86 5.859-5.86 15.355 0 21.21A14.941 14.941 0 0 0 256 271c3.84 0 7.68-1.465 10.605-4.395l44.946-44.94A64.916 64.916 0 0 1 321.336 256zm-9.397-77.148c-15.723-11.43-35.055-18.184-55.938-18.184-52.566 0-95.332 42.766-95.332 95.332 0 52.566 42.766 95.332 95.332 95.332 52.566 0 95.336-42.766 95.336-95.332 0-20.883-6.754-40.21-18.188-55.938l35.864-35.859c20.402 25.07 32.656 57.027 32.656 91.797 0 80.32-65.348 145.668-145.668 145.668-80.32 0-145.664-65.348-145.664-145.668 0-80.32 65.344-145.668 145.664-145.668 34.77 0 66.727 12.254 91.8 32.656zM30 256C30 131.383 131.383 30 256 30c41.297 0 81.059 11.02 116.031 32.012a15 15 0 0 0-2.87 14.539l11.273 33.804-11.34 11.34C338.512 95.902 299.043 80.332 256 80.332c-96.863 0-175.664 78.805-175.664 175.668S159.136 431.668 256 431.668c96.863 0 175.668-78.805 175.668-175.668 0-43.043-15.57-82.512-41.363-113.094l11.34-11.34 33.808 11.274c1.555.515 3.152.77 4.742.77a15 15 0 0 0 9.79-3.653C470.98 174.934 482 214.699 482 256c0 124.617-101.383 226-226 226S30 380.617 30 256zm0 0"></path>
  </symbol>
  <symbol xmlns="http://www.w3.org/2000/svg" viewBox="0 0 28.7 23" id="quote">
    <text transform="translate(-2.667 62.333)" font-size="90" font-family="ProximaNova-Regular" fill="#fcae26">“</text>
  </symbol>
  <symbol xmlns="http://www.w3.org/2000/svg" viewBox="0 0 512 512" id="right-arrow">
    <path d="M508.875 248.458l-160-160c-4.167-4.167-10.917-4.167-15.083 0-4.167 4.167-4.167 10.917 0 15.083l141.792 141.792H10.667C4.771 245.333 0 250.104 0 256s4.771 10.667 10.667 10.667h464.917L333.792 408.458c-4.167 4.167-4.167 10.917 0 15.083a10.634 10.634 0 0 0 7.542 3.125c2.729 0 5.458-1.042 7.542-3.125l160-160c4.166-4.166 4.166-10.916-.001-15.083z"></path>
  </symbol>
  <symbol xmlns="http://www.w3.org/2000/svg" viewBox="0 0 24 24" id="title-icon-1-24px">
    <path d="M0 0h24v24H0z" fill="none"></path>
    <path d="M12 8c-2.21 0-4 1.79-4 4s1.79 4 4 4 4-1.79 4-4-1.79-4-4-4zm8.94 3A8.994 8.994 0 0 0 13 3.06V1h-2v2.06A8.994 8.994 0 0 0 3.06 11H1v2h2.06A8.994 8.994 0 0 0 11 20.94V23h2v-2.06A8.994 8.994 0 0 0 20.94 13H23v-2h-2.06zM12 19c-3.87 0-7-3.13-7-7s3.13-7 7-7 7 3.13 7 7-3.13 7-7 7z"></path>
  </symbol>
  <symbol xmlns="http://www.w3.org/2000/svg" viewBox="0 0 24 24" id="title-icon-2-24px">
    <path d="M13 13v8h8v-8h-8zM3 21h8v-8H3v8zM3 3v8h8V3H3zm13.66-1.31L11 7.34 16.66 13l5.66-5.66-5.66-5.65z"></path>
    <path d="M0 0h24v24H0z" fill="none"></path>
  </symbol>
  <symbol xmlns="http://www.w3.org/2000/svg" viewBox="0 0 24 24" id="title-icon-3">
    <path d="M11 9.16V2c-5 .5-9 4.79-9 10s4 9.5 9 10v-7.16c-1-.41-2-1.52-2-2.84s1-2.43 2-2.84zM14.86 11H22c-.48-4.75-4-8.53-9-9v7.16c1 .3 1.52.98 1.86 1.84zM13 14.84V22c5-.47 8.52-4.25 9-9h-7.14c-.34.86-.86 1.54-1.86 1.84z"></path>
    <path fill="none" d="M0 0h24v24H0z"></path>
  </symbol>
</svg>