<?xml version="1.0" encoding="utf-8"?>
<!-- Generator: Adobe Illustrator 22.0.1, SVG Export Plug-In . SVG Version: 6.00 Build 0)  -->
<svg version="1.1" xmlns="http://www.w3.org/2000/svg" xmlns:xlink="http://www.w3.org/1999/xlink" x="0px" y="0px"
	 viewBox="0 0 2119 557.9" style="enable-background:new 0 0 2119 557.9;" xml:space="preserve">
<style type="text/css">
	.st0{fill:#FCAE26;}
	.st1{fill:#FFFFFF;stroke:#FFFFFF;stroke-width:14;stroke-miterlimit:10;}
	.st2{display:none;}
</style>
<g id="Слой_3">
	
		<rect x="816.1" y="44.2" transform="matrix(0.9981 -6.081947e-02 6.081947e-02 0.9981 -14.1313 89.2072)" class="st0" width="1284.4" height="465"/>
	<g>
		<path class="st1" d="M977.4,212.1l43-2.6l11.9,195.6l-43,2.6L977.4,212.1z"/>
	</g>
	<g>
		<path class="st1" d="M1139.2,242.1l-59.5,3.6l-2.4-39.7l162.1-9.9l2.4,39.7l-59.5,3.6l9.5,156l-43,2.6L1139.2,242.1z"/>
		<path class="st1" d="M1255.4,316.7c-2.6-42.8,25.7-79.8,69.3-82.5c50-3,75.3,34.4,77.9,76.9c0.2,3.4,0.2,7.3,0.1,11.2l-104.2,6.4
			c5.4,19,19.4,28.3,38.4,27.1c14.3-0.9,24.3-6,35.4-17.6l25.6,20c-12.9,18.2-32.4,30-59.5,31.7
			C1293.4,392.6,1258.3,363.1,1255.4,316.7z M1360.3,298.2c-3.7-18.9-15.6-31-33.5-29.9c-17.6,1.1-28.3,14.3-30.5,33.8L1360.3,298.2
			z"/>
		<path class="st1" d="M1443.5,305.2c-2.6-42.8,25.7-79.8,69.3-82.5c50-3,75.3,34.4,77.9,76.9c0.2,3.4,0.2,7.3,0.1,11.2l-104.2,6.4
			c5.4,19,19.4,28.3,38.4,27.1c14.3-0.9,24.3-6,35.4-17.6l25.6,20c-12.9,18.2-32.4,30-59.5,31.7
			C1481.5,381.2,1446.4,351.6,1443.5,305.2z M1548.4,286.7c-3.7-18.9-15.6-31-33.5-29.9c-17.6,1.1-28.3,14.3-30.5,33.8L1548.4,286.7
			z"/>
		<path class="st1" d="M1634.3,218.1l42.5-2.6l1.3,21.2c9-13.2,20.9-25.4,42.4-26.7c32.1-2,52.2,18.1,54.3,52.5l5.9,97l-42.5,2.6
			l-5.1-83.6c-1.2-20.1-11.4-29.9-27.6-28.9c-16.2,1-25.9,12-24.7,32.1l5.1,83.6l-42.5,2.6L1634.3,218.1z"/>
		<path class="st1" d="M1821.4,337.2l16.5-29.1c16.9,10.8,34.3,15.9,48.3,15c12.3-0.7,17.6-5.6,17.2-12.8
			c-0.6-9.2-15.3-11.4-32.1-15.4c-21.3-4.9-45.7-13.2-47.5-42.8c-1.9-30.5,21.7-49,51.9-50.8c19-1.2,40.1,4,57,13.9l-14.4,30.3
			c-15.3-7.8-30.5-12.2-41.4-11.5c-10.3,0.6-15.4,5.4-15,11.9c0.5,8.4,15,11.4,31.6,16c21.4,5.7,46.3,14.3,48,42.2
			c2,33.3-21.9,49.9-54.3,51.8C1866.1,357.2,1842.2,351.6,1821.4,337.2z"/>
	</g>
</g>
<g id="logo_with_white_text">
	<g>
		<g>
			<polygon points="847,221.3 688.6,17.9 7.8,59.4 36.1,523.6 716.9,482.1 849.9,267.7 864.6,243.7 			"/>
		</g>
	</g>
	<g>
		<path class="st1" d="M181.5,280.9c-3.4-55.6,37.2-103.8,96.4-107.4c35.2-2.1,57,6.1,78.5,22.1l-25.1,34.4
			c-15.9-11.7-29.7-18.1-52.4-16.7c-31.3,1.9-54.5,31.1-52.4,64.9c2.2,35.8,28.4,60.5,63,58.4c15.7-1,29.4-5.7,39.8-14.2l-1.7-27.9
			l-43.3,2.6l-2.3-37.2l85-5.2l5.2,85c-19.1,18.3-45.9,33.9-81.7,36.1C229.6,379.5,185.1,339.3,181.5,280.9z"/>
	</g>
	<g>
		<path class="st1" d="M441.1,266.5c-3.4-55.6,37.7-103.8,98.1-107.5c60.4-3.7,106.4,38.7,109.9,94.9
			c3.4,55.6-37.7,103.8-98.1,107.5C490.6,365,444.5,322.6,441.1,266.5z M604,256.5c-2-33.5-28.3-60-63-57.9
			c-34.7,2.1-57,31-54.9,65.1c2,33.5,28.3,60,63,57.9C583.7,319.5,606.1,290.6,604,256.5z"/>
	</g>
</g>
<g id="Слой_2" class="st2">
</g>
</svg>
